<svg xmlns="http://www.w3.org/2000/svg" viewBox="0 0 680 220" role="img" aria-label="CA2 System logo">
  <defs>
    <linearGradient id="shieldA" x1="0" y1="0" x2="1" y2="1">
      <stop offset="0%" stop-color="#1b8ec7"/>
      <stop offset="100%" stop-color="#041f61"/>
    </linearGradient>
    <linearGradient id="textBlue" x1="0" y1="0" x2="1" y2="1">
      <stop offset="0%" stop-color="#0b6da6"/>
      <stop offset="100%" stop-color="#041f61"/>
    </linearGradient>
    <linearGradient id="textGreen" x1="0" y1="0" x2="1" y2="1">
      <stop offset="0%" stop-color="#73ce11"/>
      <stop offset="100%" stop-color="#42a104"/>
    </linearGradient>
  </defs>

  <g transform="translate(18,18)">
    <path d="M94 8c40 0 75 14 102 40 27-26 62-40 102-40l8 116-110 44-110-44z" fill="url(#shieldA)"/>
    <path d="M196 25c20-17 46-26 76-28l5 77-81 31z" fill="#0a2e74" opacity=".92"/>
    <path d="M98 19c29 2 56 12 76 30v56l-81-31z" fill="#1493cc" opacity=".9"/>
    <path d="M86 30c35-1 64 8 86 28m48-28c35-1 64 8 86 28" stroke="#ffffff" stroke-width="6" fill="none" stroke-linecap="round"/>
    <path d="M170 56l26 26 50-54" stroke="#5ec00a" stroke-width="13" fill="none" stroke-linecap="round" stroke-linejoin="round"/>
  </g>

  <g transform="translate(320,64)">
    <text x="0" y="72" font-family="Arial, sans-serif" font-size="128" font-weight="800" fill="url(#textBlue)">CA</text>
    <text x="210" y="72" font-family="Arial, sans-serif" font-size="128" font-weight="800" fill="url(#textGreen)">2</text>
    <text x="20" y="132" font-family="Arial, sans-serif" font-size="56" font-weight="700" letter-spacing="10" fill="#063a73">SYSTEM</text>
  </g>
</svg>
